<svg width="3306" height="1905" fill="none" xmlns="http://www.w3.org/2000/svg">
  <mask id="a" fill="#fff">
    <path
      d="M258.501 487C236 465.5 34.503 379.501 2.001 352-30.5 324.499 658.5 5.5 665.501.499c4.29-3.063 0 37.002 19.999 62 35.486 21.078 173.785 43.88 182.501 55.501 22.5 30 70.6 60 97 78 33 22.5 63.999 10.5 79.499 17.5 12.4 5.6 134 191.5 169.5 210s95 0 107.5 18.5-9 12 0 27.5 171.5 58 171.5 58l79.5 14s104 11 106.5 21.5-20.67 12.952-21 26c-.51 19.941 37 7.5 47 20s25 69 77 69 63.67 15 63 22.5l33 29.5c8.67 6.667 31 20 51 20 25 0 47.28 11.053 54.5 20 10.5 13 66 22.5 82.5 7 23.75-22.31 2.24-23.24 31-47l48.5-29.5c9.17-2.833 27.9-20.866 48.5-28.5 46.01-17.051 125.5 6 125.5 6h160c18.5 0 23.5 14 23.5 14s27.6-5.9 38 8.5c13 18 23.5 23.5 48.5 14 20-7.6 36.67 7.167 42.5 15.5 5.83 8.333 2.5 24.667 12 28.5 9.5 3.833 23.14 10.644 39 11.5 19.44 1.049 42-11.5 48.5-11.5s11 7 18 4.5 1-1.5 6-10 17.29 4.427 20.5-3c8-18.5-34.12-8.574-32.5-26 1.24-13.342 28.5-1 25-23.5s24.5-22.5 35.5-18 6-13 29.5-13 20 0 45-19 66.5 0 91 10.5c19.6 8.4 3.5 21.5 14.5 32s53.5 5.5 59 0 15.3-17.9 10.5-23.5c-4.8-5.6-10.5-19-10.5-19s-34.17-7-40-10.5c-27.5-16.5 22.5-15.5 40-15.5s34.5-8.5 41.5-17.5c5.6-7.2 15.29-23.605 31-27.5 16.04-3.978 26.2 7.7 41 10.5s49.5 0 51 7.5-19 18.5-19 18.5l13 18s12 7 32-9.5 60.48-25.626 70 0c3.54 9.518 2.92 16.275 0 26-5.67 18.869-20.98 24.044-39 32-7 3.09-60.17-6-76 0-15.83 6-39.97-16.539-66-13-15.54 2.113-30.83 10.667-38 13-7.17 2.333 2.21 20.933-7 26-6.16 3.387-12.12-3.85-18 0-8.99 5.882 0 27.5 0 27.5s25 15.5 25 22.5-59 21-59 21-18.44-7.867-31-9.5c-9.68-1.259-18.81-7.549-25 0-5.08 6.191 6.39 15.672 0 20.5-4.83 3.651-9.47-.507-15.5 0-45.28 3.807-84 73.833-84 80.5v26c0 4.8 36.2-1.747 35.5 13-.6 12.551-21.65 6.131-27 17.5-9.79 20.812 65 26.641 45 38-10.53 5.979-31 0-31 0s2.6 26.7 13 47.5-4.33 22-13 20c-11.5-2.65-82.5-20-82.5-20l-13 6h-53.5c-11.2 0-36.33 10-49.5 17.5-13.17 7.5-17.65 5.73-21.5 12-3.37 5.49 1.5 8-3.5 15s-37 5-37 15.5-2.5 2 0 17 60 14.5 70 21 45 80.5 41.5 95-12.5 25-23.5 29.5-40.5-7.5-47.5 0-27.5 35-55.5 41.5 23.5 19 23.5 19 70.7 42.5 79.5 48.5c8.8 6 30.5 27 30.5 27s5 15.3 25 10.5c20-4.8 17 11.67 13 20.5s38.83 34 34.5 35.5c-4.33 1.5-13 5.7-13 10.5s72.5 54 60 63-13.4 7.2-39 8c-25.6.8-5 28 0 33s-34 34-21 45 35.9 18.6 37.5 25c1.6 6.4 22.5 41.5 15.5 46s-70.21-11.91-112.5 0c-33.21 9.35-65.5 41.5-78 41.5s-54.37-28.07-91-24.5c-21.39 2.09-52.5 16.5-52.5 16.5s-112.17 86.92-145.5 78c0 0-161 12.5-176.5 9.5s-21-48.5-21-48.5-7-18-43-18-263 51.48-292.5 66.5c-29.5 15.02-23.5 78-41 84s-71.5 22.5-92.5 25 13-9.5-136-67.5-198.5 20-213.5 14-61.5-54.5-67.5-68.5 12-21 9.5-31-126.5-92-126.5-92c-18.5-8.33-49.4-26.4-25-32 30.5-7 16.5-19.5 16.5-27.5s-8-21 0-21 26.36-17.44 30-24c5-9 13-20 0-28.5-10.4-6.8-13 1.81-13-8 0-12 43.1-18.2 55.5-25 12.4-6.8 24.89-23.91 25-43.5.09-17.03-12-27-18.5-39.5s-11.15-28.28-22-37.5c-16.96-14.42-46.67 5.17-57 0-9.33-7.5-28.8-23.7-32-28.5-3.2-4.8 24-20 15.5-31s-15 10.5-38 0-71-38-84-49.5 8.96-52.7-14-60.5c-8.69-2.95-17.55 6.99-23.499 0-5.062-5.95 4.599-13.68 0-20-6.316-8.69-17.451 3.79-27.5 0-12.537-4.73-10.501-20-23.5-25-12.998-5-176.5-21.5-176.5-21.5s-52 21.5-70 21.5c-21.5 0 23.002-107.5 18-140-5.001-32.5-251.501-132-285.5-152-33.998-20-150.5-185.5-163.001-205-12.501-19.501 10.503-153-11.999-174.5Z" />
  </mask>
  <path
    d="M258.501 487C236 465.5 34.503 379.501 2.001 352-30.5 324.499 658.5 5.5 665.501.499c4.29-3.063 0 37.002 19.999 62 35.486 21.078 173.785 43.88 182.501 55.501 22.5 30 70.6 60 97 78 33 22.5 63.999 10.5 79.499 17.5 12.4 5.6 134 191.5 169.5 210s95 0 107.5 18.5-9 12 0 27.5 171.5 58 171.5 58l79.5 14s104 11 106.5 21.5-20.67 12.952-21 26c-.51 19.941 37 7.5 47 20s25 69 77 69 63.67 15 63 22.5l33 29.5c8.67 6.667 31 20 51 20 25 0 47.28 11.053 54.5 20 10.5 13 66 22.5 82.5 7 23.75-22.31 2.24-23.24 31-47l48.5-29.5c9.17-2.833 27.9-20.866 48.5-28.5 46.01-17.051 125.5 6 125.5 6h160c18.5 0 23.5 14 23.5 14s27.6-5.9 38 8.5c13 18 23.5 23.5 48.5 14 20-7.6 36.67 7.167 42.5 15.5 5.83 8.333 2.5 24.667 12 28.5 9.5 3.833 23.14 10.644 39 11.5 19.44 1.049 42-11.5 48.5-11.5s11 7 18 4.5 1-1.5 6-10 17.29 4.427 20.5-3c8-18.5-34.12-8.574-32.5-26 1.24-13.342 28.5-1 25-23.5s24.5-22.5 35.5-18 6-13 29.5-13 20 0 45-19 66.5 0 91 10.5c19.6 8.4 3.5 21.5 14.5 32s53.5 5.5 59 0 15.3-17.9 10.5-23.5c-4.8-5.6-10.5-19-10.5-19s-34.17-7-40-10.5c-27.5-16.5 22.5-15.5 40-15.5s34.5-8.5 41.5-17.5c5.6-7.2 15.29-23.605 31-27.5 16.04-3.978 26.2 7.7 41 10.5s49.5 0 51 7.5-19 18.5-19 18.5l13 18s12 7 32-9.5 60.48-25.626 70 0c3.54 9.518 2.92 16.275 0 26-5.67 18.869-20.98 24.044-39 32-7 3.09-60.17-6-76 0-15.83 6-39.97-16.539-66-13-15.54 2.113-30.83 10.667-38 13-7.17 2.333 2.21 20.933-7 26-6.16 3.387-12.12-3.85-18 0-8.99 5.882 0 27.5 0 27.5s25 15.5 25 22.5-59 21-59 21-18.44-7.867-31-9.5c-9.68-1.259-18.81-7.549-25 0-5.08 6.191 6.39 15.672 0 20.5-4.83 3.651-9.47-.507-15.5 0-45.28 3.807-84 73.833-84 80.5v26c0 4.8 36.2-1.747 35.5 13-.6 12.551-21.65 6.131-27 17.5-9.79 20.812 65 26.641 45 38-10.53 5.979-31 0-31 0s2.6 26.7 13 47.5-4.33 22-13 20c-11.5-2.65-82.5-20-82.5-20l-13 6h-53.5c-11.2 0-36.33 10-49.5 17.5-13.17 7.5-17.65 5.73-21.5 12-3.37 5.49 1.5 8-3.5 15s-37 5-37 15.5-2.5 2 0 17 60 14.5 70 21 45 80.5 41.5 95-12.5 25-23.5 29.5-40.5-7.5-47.5 0-27.5 35-55.5 41.5 23.5 19 23.5 19 70.7 42.5 79.5 48.5c8.8 6 30.5 27 30.5 27s5 15.3 25 10.5c20-4.8 17 11.67 13 20.5s38.83 34 34.5 35.5c-4.33 1.5-13 5.7-13 10.5s72.5 54 60 63-13.4 7.2-39 8c-25.6.8-5 28 0 33s-34 34-21 45 35.9 18.6 37.5 25c1.6 6.4 22.5 41.5 15.5 46s-70.21-11.91-112.5 0c-33.21 9.35-65.5 41.5-78 41.5s-54.37-28.07-91-24.5c-21.39 2.09-52.5 16.5-52.5 16.5s-112.17 86.92-145.5 78c0 0-161 12.5-176.5 9.5s-21-48.5-21-48.5-7-18-43-18-263 51.48-292.5 66.5c-29.5 15.02-23.5 78-41 84s-71.5 22.5-92.5 25 13-9.5-136-67.5-198.5 20-213.5 14-61.5-54.5-67.5-68.5 12-21 9.5-31-126.5-92-126.5-92c-18.5-8.33-49.4-26.4-25-32 30.5-7 16.5-19.5 16.5-27.5s-8-21 0-21 26.36-17.44 30-24c5-9 13-20 0-28.5-10.4-6.8-13 1.81-13-8 0-12 43.1-18.2 55.5-25 12.4-6.8 24.89-23.91 25-43.5.09-17.03-12-27-18.5-39.5s-11.15-28.28-22-37.5c-16.96-14.42-46.67 5.17-57 0-9.33-7.5-28.8-23.7-32-28.5-3.2-4.8 24-20 15.5-31s-15 10.5-38 0-71-38-84-49.5 8.96-52.7-14-60.5c-8.69-2.95-17.55 6.99-23.499 0-5.062-5.95 4.599-13.68 0-20-6.316-8.69-17.451 3.79-27.5 0-12.537-4.73-10.501-20-23.5-25-12.998-5-176.5-21.5-176.5-21.5s-52 21.5-70 21.5c-21.5 0 23.002-107.5 18-140-5.001-32.5-251.501-132-285.5-152-33.998-20-150.5-185.5-163.001-205-12.501-19.501 10.503-153-11.999-174.5Z"
    stroke="#fff" stroke-width="6" mask="url(#a)" />
</svg>
